<svg width="64" height="64" viewBox="0 0 64 64" fill="none" xmlns="http://www.w3.org/2000/svg">
<rect width="64" height="64" rx="32" fill="url(#paint0_linear_48_1776)"/>
<path fill-rule="evenodd" clip-rule="evenodd" d="M29.9135 18.4566C31.0667 16.4715 33.9332 16.4715 35.0864 18.4566L38.6141 24.5383C38.9387 25.0986 39.5024 25.4795 40.143 25.5769L46.0026 26.4618C48.5549 26.8479 49.45 30.0733 47.4615 31.7201L43.1924 35.2563C42.8982 35.5003 42.6748 35.8187 42.5456 36.1784C42.4164 36.538 42.3861 36.9258 42.4578 37.3012L43.6537 43.581C44.1217 46.041 41.5387 47.951 39.323 46.7859L33.4942 43.716C33.1876 43.5547 32.8464 43.4704 32.5 43.4704C32.1535 43.4704 31.8123 43.5547 31.5057 43.716L25.6769 46.7859C23.4612 47.9527 20.8782 46.041 21.3462 43.581L22.5421 37.3012C22.6138 36.9258 22.5835 36.538 22.4543 36.1784C22.3251 35.8187 22.1017 35.5003 21.8075 35.2563L17.5367 31.7201C15.5499 30.0733 16.4433 26.8479 18.999 26.4618L24.8586 25.5769C25.1748 25.529 25.4762 25.4106 25.7406 25.2305C26.0049 25.0504 26.2254 24.8133 26.3858 24.5365L29.9135 18.4566ZM32.869 19.743C32.8314 19.6784 32.7775 19.6249 32.7127 19.5877C32.648 19.5505 32.5746 19.5309 32.5 19.5309C32.4253 19.5309 32.3519 19.5505 32.2872 19.5877C32.2224 19.6249 32.1686 19.6784 32.131 19.743L28.6015 25.8246C28.2483 26.4329 27.7629 26.954 27.1813 27.3497C26.5997 27.7453 25.9367 28.0052 25.2412 28.1104L19.3817 28.9953C19.3001 29.0076 19.2238 29.0432 19.162 29.0979C19.1003 29.1526 19.0557 29.224 19.0336 29.3035C19.0116 29.383 19.013 29.4672 19.0378 29.5459C19.0626 29.6246 19.1096 29.6944 19.1732 29.747L23.4424 33.2832C24.0896 33.8194 24.5811 34.5195 24.8656 35.3103C25.1502 36.1012 25.2174 36.9539 25.0602 37.7795L23.8643 44.0594C23.8493 44.1383 23.8568 44.2199 23.8861 44.2948C23.9154 44.3696 23.9652 44.4347 24.0298 44.4825C24.0943 44.5303 24.1711 44.559 24.2513 44.5651C24.3314 44.5712 24.4116 44.5546 24.4827 44.5172L30.3116 41.449C30.9863 41.0938 31.7374 40.9082 32.5 40.9082C33.2625 40.9082 34.0136 41.0938 34.6883 41.449L40.5172 44.5172C40.5883 44.5546 40.6685 44.5712 40.7487 44.5651C40.8288 44.559 40.9056 44.5303 40.9702 44.4825C41.0347 44.4347 41.0845 44.3696 41.1138 44.2948C41.1431 44.2199 41.1506 44.1383 41.1356 44.0594L39.9397 37.7795C39.7825 36.9539 39.8497 36.1012 40.1343 35.3103C40.4188 34.5195 40.9103 33.8194 41.5575 33.2832L45.8284 29.747C45.892 29.6943 45.939 29.6244 45.9637 29.5455C45.9884 29.4667 45.9897 29.3824 45.9675 29.3029C45.9453 29.2233 45.9004 29.1519 45.8384 29.0973C45.7765 29.0427 45.7 29.0073 45.6182 28.9953L39.7587 28.1104C39.063 28.0051 38.3999 27.7448 37.8183 27.3489C37.2367 26.953 36.7514 26.4315 36.3984 25.8229L32.869 19.743Z" fill="white"/>
<defs>
<linearGradient id="paint0_linear_48_1776" x1="0" y1="0" x2="64" y2="0" gradientUnits="userSpaceOnUse">
<stop stop-color="#DFD87D"/>
<stop offset="0.5" stop-color="#D9BD38"/>
</linearGradient>
</defs>
</svg>
