<svg width="64" height="64" viewBox="0 0 64 64" fill="none" xmlns="http://www.w3.org/2000/svg">
<rect width="64" height="64" rx="32" fill="url(#paint0_linear_48_1788)"/>
<path fill-rule="evenodd" clip-rule="evenodd" d="M32.4112 13.564H32.5889C34.1246 13.564 35.4042 13.564 36.4189 13.7006C37.4918 13.8441 38.4604 14.1619 39.2377 14.9392C40.0167 15.7182 40.3344 16.6868 40.4779 17.7579C40.5804 18.5096 40.6061 19.4048 40.6129 20.44C41.7199 20.4759 42.7073 20.5425 43.5854 20.6587C45.5876 20.9286 47.2088 21.4958 48.4883 22.7736C49.7661 24.0531 50.3333 25.6743 50.6032 27.6765C50.8646 29.624 50.8646 32.1096 50.8646 35.2495V35.4409C50.8646 38.5808 50.8646 41.0681 50.6032 43.0139C50.3333 45.0161 49.7661 46.6373 48.4883 47.9168C47.2088 49.1947 45.5876 49.7618 43.5854 50.0318C41.6379 50.2931 39.1523 50.2931 36.0124 50.2931H28.9877C25.8478 50.2931 23.3604 50.2931 21.4146 50.0318C19.4125 49.7618 17.7913 49.1947 16.5117 47.9168C15.2339 46.6373 14.6667 45.0161 14.3968 43.0139C14.1354 41.0664 14.1354 38.5808 14.1354 35.4409V35.2495C14.1354 32.1096 14.1354 29.6223 14.3968 27.6765C14.6667 25.6743 15.2339 24.0531 16.5117 22.7736C17.7913 21.4958 19.4125 20.9286 21.4146 20.6587C22.4014 20.5378 23.3934 20.4648 24.3871 20.44C24.394 19.4048 24.4213 18.5096 24.5221 17.7579C24.6656 16.6868 24.9834 15.7182 25.7606 14.9392C26.5396 14.1619 27.5083 13.8458 28.5794 13.7006C29.5959 13.564 30.8771 13.564 32.4112 13.564ZM26.9514 20.4007C27.5971 20.3973 28.2759 20.3962 28.9877 20.3973H36.0124C36.7242 20.3973 37.4029 20.3984 38.0487 20.4007C38.0419 19.427 38.0179 18.6924 37.9394 18.0996C37.8317 17.312 37.6489 16.9738 37.4269 16.7517C37.2048 16.5296 36.8665 16.3468 36.0773 16.2392C35.2539 16.1299 34.1469 16.1265 32.5 16.1265C30.8532 16.1265 29.7462 16.1299 28.9211 16.2409C28.1335 16.3468 27.7953 16.5296 27.5732 16.7534C27.3511 16.9772 27.1683 17.312 27.0607 18.0996C26.9821 18.6907 26.9582 19.4253 26.9514 20.4007ZM21.7546 23.199C20.036 23.4296 19.0452 23.8635 18.3209 24.5861C17.5999 25.3088 17.166 26.2996 16.9354 28.0182C16.6996 29.7726 16.6962 32.0874 16.6962 35.3452C16.6962 38.603 16.6996 40.9178 16.9354 42.674C17.166 44.3908 17.5999 45.3817 18.3226 46.1043C19.0452 46.8269 20.036 47.2608 21.7546 47.4915C23.5108 47.7272 25.8239 47.7306 29.0816 47.7306H35.915C39.1728 47.7306 41.4876 47.7272 43.2437 47.4915C44.9606 47.2608 45.9514 46.8269 46.6741 46.1043C47.3967 45.3817 47.8306 44.3908 48.0612 42.6723C48.297 40.9178 48.3004 38.603 48.3004 35.3452C48.3004 32.0874 48.297 29.7743 48.0612 28.0165C47.8306 26.2996 47.3967 25.3088 46.6741 24.5861C45.9514 23.8635 44.9606 23.4296 43.242 23.199C41.4876 22.9632 39.1728 22.9598 35.915 22.9598H29.0816C25.8239 22.9598 23.5125 22.9632 21.7546 23.199ZM32.5 27.2306C32.8398 27.2306 33.1657 27.3656 33.406 27.6059C33.6463 27.8462 33.7813 28.1721 33.7813 28.5119V28.529C35.6416 28.997 37.1979 30.4645 37.1979 32.4974C37.1979 32.8372 37.0629 33.1631 36.8227 33.4034C36.5824 33.6437 36.2565 33.7787 35.9167 33.7787C35.5769 33.7787 35.251 33.6437 35.0107 33.4034C34.7704 33.1631 34.6354 32.8372 34.6354 32.4974C34.6354 31.8414 33.9077 30.9326 32.5 30.9326C31.0924 30.9326 30.3646 31.8414 30.3646 32.4974C30.3646 33.1534 31.0924 34.064 32.5 34.064C34.8661 34.064 37.1979 35.704 37.1979 38.193C37.1979 40.2259 35.6416 41.6917 33.7813 42.1615V42.1785C33.7813 42.5184 33.6463 42.8442 33.406 43.0845C33.1657 43.3248 32.8398 43.4598 32.5 43.4598C32.1602 43.4598 31.8343 43.3248 31.594 43.0845C31.3538 42.8442 31.2188 42.5184 31.2188 42.1785V42.1615C29.3584 41.6934 27.8021 40.2259 27.8021 38.193C27.8021 37.8532 27.9371 37.5273 28.1774 37.287C28.4177 37.0467 28.7435 36.9118 29.0834 36.9118C29.4232 36.9118 29.7491 37.0467 29.9893 37.287C30.2296 37.5273 30.3646 37.8532 30.3646 38.193C30.3646 38.849 31.0924 39.7578 32.5 39.7578C33.9077 39.7578 34.6354 38.849 34.6354 38.193C34.6354 37.537 33.9077 36.6265 32.5 36.6265C30.134 36.6265 27.8021 34.9865 27.8021 32.4974C27.8021 30.4645 29.3584 28.997 31.2188 28.529V28.5119C31.2188 28.1721 31.3538 27.8462 31.594 27.6059C31.8343 27.3656 32.1602 27.2306 32.5 27.2306Z" fill="white"/>
<defs>
<linearGradient id="paint0_linear_48_1788" x1="0" y1="0" x2="64" y2="0" gradientUnits="userSpaceOnUse">
<stop stop-color="#DFD87D"/>
<stop offset="0.5" stop-color="#D9BD38"/>
</linearGradient>
</defs>
</svg>
