<svg width="64" height="64" viewBox="0 0 64 64" fill="none" xmlns="http://www.w3.org/2000/svg">
<rect width="64" height="64" rx="32" fill="url(#paint0_linear_48_1800)"/>
<g clip-path="url(#clip0_48_1800)">
<path d="M51.5357 50.906H50.0714C48.518 50.906 47.0282 50.2889 45.9298 49.1904C44.8313 48.092 44.2142 46.6022 44.2142 45.0488C44.2142 46.6022 43.5971 48.092 42.4987 49.1904C41.4003 50.2889 39.9105 50.906 38.3571 50.906C36.8037 50.906 35.3139 50.2889 34.2155 49.1904C33.117 48.092 32.4999 46.6022 32.4999 45.0488C32.4999 46.6022 31.8829 48.092 30.7844 49.1904C29.686 50.2889 28.1962 50.906 26.6428 50.906C25.0894 50.906 23.5996 50.2889 22.5012 49.1904C21.4028 48.092 20.7857 46.6022 20.7857 45.0488C20.7857 46.6022 20.1686 48.092 19.0701 49.1904C17.9717 50.2889 16.4819 50.906 14.9285 50.906H13.4642M41.2857 39.1917C39.7774 37.3579 37.8817 35.881 35.7347 34.867C33.5878 33.853 31.2429 33.3271 28.8685 33.3271C26.4942 33.3271 24.1493 33.853 22.0023 34.867C19.8554 35.881 17.9597 37.3579 16.4514 39.1917" stroke="white" stroke-width="2.92857" stroke-linecap="round" stroke-linejoin="round"/>
<path d="M31.0357 33.4808C31.2114 26.8622 33.2321 20.8294 37.625 18.6622M28.8685 13.0979C30.7669 12.7241 32.7364 13.0928 34.371 14.1281C36.0056 15.1633 37.1807 16.7862 37.6542 18.6622" stroke="white" stroke-width="2.92857" stroke-linecap="round" stroke-linejoin="round"/>
<path d="M48.3436 19.7457C46.9957 18.2903 45.1628 17.3771 43.1891 17.1775C41.2155 16.978 39.2369 17.5059 37.625 18.6621" stroke="white" stroke-width="2.92857" stroke-linecap="round" stroke-linejoin="round"/>
<path d="M26.8771 21.7959C28.0246 20.1052 29.7256 18.8674 31.6873 18.2955C33.6489 17.7236 35.7486 17.8533 37.6249 18.6623C39.507 19.1226 41.1365 20.2964 42.1693 21.9357C43.2021 23.5751 43.5573 25.5517 43.1599 27.448" stroke="white" stroke-width="2.92857" stroke-linecap="round" stroke-linejoin="round"/>
</g>
<defs>
<linearGradient id="paint0_linear_48_1800" x1="0" y1="0" x2="64" y2="0" gradientUnits="userSpaceOnUse">
<stop stop-color="#DFD87D"/>
<stop offset="0.5" stop-color="#D9BD38"/>
</linearGradient>
<clipPath id="clip0_48_1800">
<rect width="41" height="41" fill="white" transform="translate(12 11.4287)"/>
</clipPath>
</defs>
</svg>
